<?xml version="1.0" encoding="iso-8859-1"?>
<!-- Generator: Adobe Illustrator 19.0.0, SVG Export Plug-In . SVG Version: 6.00 Build 0)  -->
<svg version="1.1" id="Capa_1" xmlns="http://www.w3.org/2000/svg" xmlns:xlink="http://www.w3.org/1999/xlink" x="0px" y="0px"
	 viewBox="0 0 480 480" style="enable-background:new 0 0 480 480;" xml:space="preserve">
<g>
	<g>
		<path d="M472,0h-32c-4.418,0-8,3.582-8,8v32h-0.72c-4.392-26.112-29.12-43.72-55.232-39.328
			C355.897,4.061,340.109,19.849,336.72,40h-1.44c-4.392-26.112-29.12-43.72-55.232-39.328C259.897,4.061,244.109,19.849,240.72,40
			h-1.44c-4.392-26.112-29.12-43.72-55.232-39.328C163.897,4.061,148.109,19.849,144.72,40H48V8c0-4.418-3.582-8-8-8H8
			C3.582,0,0,3.582,0,8v464c0,4.418,3.582,8,8,8h32c4.418,0,8-3.582,8-8v-32h96.72c4.392,26.112,29.12,43.72,55.232,39.328
			c20.151-3.389,35.939-19.177,39.328-39.328h1.44c4.392,26.112,29.12,43.72,55.232,39.328
			c20.151-3.389,35.939-19.177,39.328-39.328h1.44c4.392,26.112,29.12,43.72,55.232,39.328
			c20.151-3.389,35.939-19.177,39.328-39.328H432v32c0,4.418,3.582,8,8,8h32c4.418,0,8-3.582,8-8V8C480,3.582,476.418,0,472,0z
			 M32,464H16V16h16V464z M384,16c17.673,0,32,14.327,32,32s-14.327,32-32,32c-17.673,0-32-14.327-32-32S366.327,16,384,16z M288,16
			c17.673,0,32,14.327,32,32s-14.327,32-32,32c-17.673,0-32-14.327-32-32S270.327,16,288,16z M192,16c17.673,0,32,14.327,32,32
			s-14.327,32-32,32s-32-14.327-32-32S174.327,16,192,16z M192,464c-17.673,0-32-14.327-32-32c0-17.673,14.327-32,32-32
			s32,14.327,32,32C224,449.673,209.673,464,192,464z M288,464c-17.673,0-32-14.327-32-32c0-17.673,14.327-32,32-32
			c17.673,0,32,14.327,32,32C320,449.673,305.673,464,288,464z M384,464c-17.673,0-32-14.327-32-32c0-17.673,14.327-32,32-32
			c17.673,0,32,14.327,32,32C416,449.673,401.673,464,384,464z M432,424h-0.72c-3.919-23.066-23.883-39.957-47.28-40
			c-23.397,0.043-43.361,16.934-47.28,40h-1.44c-4.392-26.112-29.12-43.72-55.232-39.328c-20.151,3.389-35.939,19.177-39.328,39.328
			h-1.44c-4.392-26.112-29.12-43.72-55.232-39.328c-20.151,3.389-35.939,19.177-39.328,39.328H48V248h0.72
			c4.392,26.112,29.12,43.72,55.232,39.328c20.151-3.389,35.939-19.177,39.328-39.328h1.44c4.392,26.112,29.12,43.72,55.232,39.328
			c20.151-3.389,35.939-19.177,39.328-39.328h1.44c4.392,26.112,29.12,43.72,55.232,39.328
			c20.151-3.389,35.939-19.177,39.328-39.328H432V424z M64,240c0-17.673,14.327-32,32-32s32,14.327,32,32s-14.327,32-32,32
			S64,257.673,64,240z M160,240c0-17.673,14.327-32,32-32s32,14.327,32,32s-14.327,32-32,32S160,257.673,160,240z M256,240
			c0-17.673,14.327-32,32-32c17.673,0,32,14.327,32,32s-14.327,32-32,32C270.327,272,256,257.673,256,240z M432,232h-96.72
			c-4.392-26.112-29.12-43.72-55.232-39.328c-20.151,3.389-35.939,19.177-39.328,39.328h-1.44
			c-4.392-26.112-29.12-43.72-55.232-39.328c-20.151,3.389-35.939,19.177-39.328,39.328h-1.44
			c-4.392-26.112-29.12-43.72-55.232-39.328C67.897,196.061,52.109,211.849,48.72,232H48V56h96.72
			c4.392,26.112,29.12,43.72,55.232,39.328C220.103,91.939,235.891,76.151,239.28,56h1.44c4.392,26.112,29.12,43.72,55.232,39.328
			C316.103,91.939,331.891,76.151,335.28,56h1.44c4.392,26.112,29.12,43.72,55.232,39.328C412.103,91.939,427.891,76.151,431.28,56
			H432V232z M464,464h-16V16h16V464z"/>
	</g>
</g>
<g>
</g>
<g>
</g>
<g>
</g>
<g>
</g>
<g>
</g>
<g>
</g>
<g>
</g>
<g>
</g>
<g>
</g>
<g>
</g>
<g>
</g>
<g>
</g>
<g>
</g>
<g>
</g>
<g>
</g>
</svg>
