<svg id="Capa_1" enable-background="new 0 0 512 512" height="512" viewBox="0 0 512 512" width="512" xmlns="http://www.w3.org/2000/svg"><g><path d="m155.709 91.221 60.804-35.095c-1.588-4.422-2.467-9.212-2.467-14.173 0-11.594 4.706-22.082 12.304-29.65 7.596-7.597 18.056-12.303 29.65-12.303s22.082 4.706 29.65 12.303c7.598 7.568 12.304 18.057 12.304 29.65 0 4.961-.879 9.751-2.467 14.173l60.804 35.095c7.993-9.412 19.616-14.826 32.004-14.826 11.594 0 22.082 4.678 29.679 12.274 7.568 7.597 12.274 18.085 12.274 29.65 0 11.594-4.706 22.082-12.274 29.68-5.925 5.896-13.606 10.064-22.167 11.622v70.188c8.561 1.559 16.242 5.726 22.167 11.621 7.568 7.598 12.274 18.086 12.274 29.68 0 11.564-4.706 22.053-12.274 29.651-7.597 7.596-18.085 12.273-29.679 12.273-12.359 0-24.011-5.386-32.004-14.825l-29.197 16.866 67.975 108.256c2.835 4.479 4.394 10.8 4.394 16.073 0 5.442-1.417 10.914-4.252 15.817l-23.612 40.905c-2.892 4.987-6.917 8.899-11.566 11.593-4.818 2.778-10.289 4.28-15.846 4.28h-176.373c-6.123 0-11.877-1.756-16.81-4.847-4.961-3.119-8.987-7.541-11.623-12.785l-22.592-39.146c-3.062-5.301-4.423-11.111-4.252-16.839.198-5.867 2.041-11.82 5.357-16.695l32.23-51.279c2.211-3.516 6.831-4.564 10.318-2.353 3.486 2.211 4.535 6.831 2.352 10.318l-32.23 51.278c-1.871 3.232-2.948 5.301-3.09 9.186-.085 3.005.623 6.095 2.268 8.901l22.706 39.344c1.928 3.316 3.061 5.273 6.463 7.428 2.552 1.587 5.613 2.494 8.901 2.494h176.373c2.892 0 5.783-.766 8.334-2.24 2.467-1.416 4.592-3.486 6.123-6.15l23.613-40.875c1.475-2.552 2.211-5.443 2.211-8.335 0-2.807-.68-5.613-2.04-8.107l-83.366-132.747c-.936-1.248-1.475-2.778-1.475-4.452v-91.872h-24.605c-4.139 0-7.483-3.373-7.483-7.512s3.345-7.512 7.483-7.512h32.117c2.268 0 4.365-.936 5.896-2.438 1.502-1.531 2.438-3.629 2.438-5.896 0-2.296-.936-4.394-2.438-5.895-1.531-1.53-3.628-2.466-5.896-2.466h-98.165c-2.296 0-4.393.936-5.896 2.466-1.53 1.502-2.466 3.6-2.466 5.895 0 2.268.936 4.365 2.466 5.896 1.503 1.502 3.6 2.438 5.896 2.438h32.089c4.139 0 7.483 3.373 7.483 7.512s-3.345 7.512-7.483 7.512h-24.605v91.872c0 1.362-.397 2.751-1.162 3.97l-32.4 51.533c-2.183 3.487-6.803 4.536-10.29 2.354-3.515-2.211-4.564-6.832-2.352-10.318l16.696-26.561-29.197-16.866c-7.993 9.439-19.616 14.825-32.004 14.825-11.594 0-22.082-4.678-29.65-12.273-7.597-7.599-12.303-18.087-12.303-29.651 0-11.594 4.706-22.082 12.303-29.68 5.896-5.896 13.578-10.062 22.139-11.621v-70.188c-8.561-1.559-16.242-5.726-22.139-11.622-7.597-7.598-12.303-18.086-12.303-29.68 0-11.565 4.706-22.054 12.303-29.65 7.568-7.597 18.057-12.274 29.65-12.274 12.386-.001 24.009 5.413 32.002 14.825zm65.566 298.379c-4.168 0-7.513-3.346-7.513-7.512 0-4.139 3.345-7.484 7.513-7.484h69.421c4.14 0 7.513 3.346 7.513 7.484 0 4.166-3.373 7.512-7.513 7.512zm-35.603 58.253c-4.139 0-7.483-3.374-7.483-7.513s3.345-7.484 7.483-7.484h140.628c4.139 0 7.484 3.346 7.484 7.484 0 4.139-3.346 7.513-7.484 7.513zm17.291-29.142c-4.139 0-7.483-3.345-7.483-7.483 0-4.139 3.345-7.512 7.483-7.512h106.017c4.167 0 7.512 3.373 7.512 7.512s-3.345 7.483-7.512 7.483zm21.034-349.659-60.805 35.095c1.588 4.45 2.467 9.213 2.467 14.173 0 11.594-4.706 22.082-12.303 29.68-5.895 5.896-13.579 10.064-22.168 11.622v70.188c8.589 1.559 16.272 5.726 22.168 11.621 7.597 7.598 12.303 18.086 12.303 29.68 0 4.96-.879 9.723-2.467 14.145l29.68 17.15 6.548-10.433v-90.993c-3.431-1.162-6.491-3.118-9.015-5.612-4.224-4.224-6.831-10.062-6.831-16.498 0-6.434 2.607-12.273 6.831-16.497 4.252-4.252 10.092-6.86 16.526-6.86h98.165c6.406 0 12.246 2.608 16.498 6.86 4.224 4.224 6.832 10.064 6.832 16.497 0 6.436-2.608 12.274-6.832 16.498-2.522 2.494-5.584 4.45-9.014 5.612v90.993l6.548 10.433 29.679-17.15c-1.588-4.422-2.467-9.185-2.467-14.145 0-11.594 4.706-22.082 12.303-29.68 5.896-5.896 13.579-10.062 22.168-11.621v-70.188c-8.589-1.559-16.271-5.726-22.168-11.622-7.597-7.598-12.303-18.086-12.303-29.68 0-4.96.879-9.723 2.467-14.173l-60.805-35.095c-7.993 9.44-19.615 14.854-32.003 14.854s-24.009-5.414-32.002-14.854zm183.347 182.979c-4.876-4.875-11.594-7.88-19.049-7.88-7.427 0-14.173 3.005-19.049 7.88-4.877 4.876-7.882 11.623-7.882 19.078 0 7.426 3.005 14.173 7.882 19.049 4.876 4.876 11.622 7.881 19.049 7.881 7.455 0 14.173-3.005 19.049-7.881s7.908-11.623 7.908-19.049c0-7.455-3.032-14.202-7.908-19.078zm-264.59 0c-4.875-4.875-11.622-7.88-19.049-7.88-7.455 0-14.173 3.005-19.049 7.88-4.875 4.876-7.908 11.623-7.908 19.078 0 7.426 3.033 14.173 7.908 19.049 4.876 4.876 11.594 7.881 19.049 7.881 7.427 0 14.174-3.005 19.049-7.881 4.877-4.876 7.882-11.623 7.882-19.049 0-7.455-3.005-14.202-7.882-19.078zm0-152.76c-4.875-4.876-11.622-7.88-19.049-7.88-7.455 0-14.173 3.004-19.049 7.88-4.875 4.876-7.908 11.622-7.908 19.049 0 7.455 3.033 14.202 7.908 19.077 4.876 4.876 11.594 7.881 19.049 7.881 7.427 0 14.174-3.005 19.049-7.881 4.877-4.875 7.882-11.622 7.882-19.077 0-7.427-3.005-14.174-7.882-19.049zm132.295-76.367c-4.875-4.876-11.594-7.909-19.049-7.909-7.427 0-14.173 3.033-19.049 7.909-4.875 4.876-7.908 11.594-7.908 19.049 0 7.427 3.033 14.173 7.908 19.049 4.876 4.876 11.622 7.88 19.049 7.88 7.455 0 14.174-3.004 19.049-7.88 4.876-4.876 7.908-11.622 7.908-19.049 0-7.455-3.032-14.173-7.908-19.049zm132.295 76.367c-4.876-4.876-11.594-7.88-19.049-7.88-7.427 0-14.173 3.004-19.049 7.88-4.877 4.876-7.882 11.622-7.882 19.049 0 7.455 3.005 14.202 7.882 19.077 4.876 4.876 11.622 7.881 19.049 7.881 7.455 0 14.173-3.005 19.049-7.881 4.876-4.875 7.908-11.622 7.908-19.077 0-7.427-3.032-14.174-7.908-19.049zm-134.365 382.54c-4.139 0-7.483-3.373-7.483-7.512s3.345-7.512 7.483-7.512h63.384l15.647-27.101-52.781-84.048h-86.487l-52.81 84.019 15.676 27.13h63.412c4.139 0 7.483 3.373 7.483 7.512s-3.345 7.512-7.483 7.512h-67.692c-2.579 0-5.102-1.39-6.491-3.799l-19.872-34.441c-1.559-2.352-1.672-5.528-.085-8.079l57.119-90.823c1.247-2.41 3.742-4.025 6.633-4.025h94.708c2.494 0 4.933 1.248 6.35 3.516l57.232 91.163c1.587 2.296 1.785 5.385.311 7.966l-19.815 34.299c-1.219 2.495-3.77 4.225-6.746 4.225h-67.693z"/></g></svg>